<svg width="242" height="151" viewBox="0 0 242 151" fill="none" xmlns="http://www.w3.org/2000/svg">
<g filter="url(#filter0_d_66_11)">
<path d="M32.6899 111.16C32.1937 109.984 32.176 108.829 32.637 107.695C33.1222 106.5 33.9526 105.655 35.1282 105.159L44.7639 101.091L41.1591 97.1223C39.7607 95.6845 38.4066 94.3516 37.0967 93.1237C35.8112 91.8361 34.4827 90.7398 33.1113 89.8347C31.8238 88.8942 30.6796 88.5857 29.6785 88.9094C28.7063 89.4187 28.0872 90.4716 27.8211 92.0679C27.5551 93.6642 27.4141 95.3808 27.3981 97.2179C27.4064 98.9952 27.438 100.886 27.4929 102.891L28.4222 121.791C28.3745 122.85 28.1389 123.815 27.7153 124.687C27.3159 125.498 26.4654 126.179 25.1639 126.728C23.9463 127.242 22.7614 127.248 21.6092 126.745C20.499 126.224 19.7378 125.358 19.3255 124.147C19.1371 123.584 19.0503 123.027 19.0653 122.476L18.4426 101.666C18.3889 96.1485 18.7162 91.5336 19.4246 87.8213C20.1088 84.1687 22.2683 81.5505 25.9033 79.9665C29.5318 78.4843 32.8933 78.7719 35.9878 80.8293C39.1066 82.8271 42.642 85.8114 46.5938 89.7825L61.0716 104.744C61.4765 105.117 61.8151 105.568 62.0875 106.096C62.6677 107.236 62.7362 108.394 62.293 109.571C61.8917 110.729 61.0823 111.566 59.8647 112.08C58.4792 112.665 57.3354 112.826 56.4332 112.564C55.5553 112.242 54.7203 111.729 53.9283 111.024L51.3492 108.254L38.6907 113.598C37.5151 114.094 36.3512 114.091 35.199 113.588C34.0226 113.145 33.1862 112.335 32.6899 111.16ZM80.689 108.854C81.5005 111.48 80.691 113.429 78.2605 114.702C77.085 115.199 75.8879 115.234 74.6695 114.808C73.5108 114.407 72.6833 113.619 72.187 112.443L59.5324 82.4656C59.0781 81.2723 59.1113 80.1205 59.632 79.0103C60.1349 77.8581 60.9742 77.0339 62.1498 76.5376L88.6005 65.3717C92.3484 63.938 95.5126 63.6411 98.0932 64.481C100.656 65.2788 102.792 66.5292 104.5 68.232C106.19 69.8928 107.478 71.7729 108.365 73.8721C109.286 76.0554 109.761 78.3528 109.79 80.7646C109.843 83.1166 109.25 85.519 108.01 87.9717C106.794 90.3647 104.725 92.2026 101.804 93.4852L85.9335 100.185C84.7579 100.681 83.594 100.678 82.4418 100.175C81.2653 99.7314 80.429 98.922 79.9327 97.7464C79.4365 96.5708 79.4188 95.4158 79.8798 94.2813C80.365 93.0872 81.1954 92.2419 82.371 91.7457L98.4934 84.9398C99.2911 84.6031 99.8509 83.9957 100.173 83.1178C100.477 82.1979 100.578 81.265 100.475 80.3189C100.397 79.3131 100.181 78.3904 99.8262 77.5507C99.454 76.669 98.9437 75.8704 98.2953 75.1547C97.6712 74.3794 96.9324 73.8009 96.0787 73.4192C95.2073 72.9956 94.3639 72.9311 93.5485 73.2259L71.5062 82.5308C70.4323 83.0336 70.1169 83.8098 70.56 84.8595L80.689 108.854ZM132.898 86.8147C133.709 89.4402 132.9 91.3896 130.469 92.6629C129.294 93.1592 128.097 93.1946 126.878 92.769C125.719 92.3678 124.892 91.5794 124.396 90.4038L111.741 60.4263C111.287 59.233 111.32 58.0812 111.841 56.971C112.344 55.8188 113.183 54.9946 114.358 54.4983L140.809 43.3324C144.557 41.8987 147.721 41.6018 150.302 42.4417C152.865 43.2395 155 44.4899 156.708 46.1927C158.399 47.8535 159.687 49.7335 160.573 51.8328C161.495 54.016 161.97 56.3135 161.999 58.7253C162.052 61.0773 161.458 63.4797 160.218 65.9324C159.002 68.3254 156.934 70.1632 154.013 71.4459L138.142 78.1454C136.967 78.6417 135.803 78.6383 134.651 78.1354C133.474 77.6921 132.638 76.8827 132.141 75.7071C131.645 74.5315 131.628 73.3765 132.088 72.242C132.574 71.0478 133.404 70.2026 134.58 69.7064L150.702 62.9005C151.5 62.5638 152.06 61.9564 152.382 61.0785C152.686 60.1586 152.787 59.2256 152.684 58.2796C152.606 57.2738 152.389 56.3511 152.035 55.5114C151.663 54.6297 151.152 53.8311 150.504 53.1154C149.88 52.3401 149.141 51.7616 148.287 51.3799C147.416 50.9563 146.573 50.8918 145.757 51.1866L123.715 60.4915C122.641 60.9943 122.326 61.7705 122.769 62.8201L132.898 86.8147ZM162.526 22.8864C163.678 22.4498 164.82 22.462 165.955 22.923C167.072 23.342 167.89 24.1094 168.411 25.2253L181.438 56.0845C182.249 58.7099 181.44 60.6593 179.009 61.9327C177.834 62.4289 176.645 62.4853 175.445 62.1018C174.268 61.6585 173.432 60.8491 172.936 59.6735L159.909 28.8143C159.455 27.621 159.488 26.4693 160.008 25.359C160.511 24.2069 161.351 23.3826 162.526 22.8864ZM182.622 24.7911C183.798 24.2948 184.974 24.2683 186.151 24.7115C187.309 25.1128 188.158 25.8924 188.696 27.0502L191.381 33.411C192.066 35.1501 192.844 36.7013 193.716 38.0644C194.613 39.3678 195.825 40.3648 197.353 41.0553C198.882 41.7458 200.461 41.7963 202.092 41.2068L218.907 34.1085L211.862 17.4194C211.366 16.2438 211.378 15.1009 211.899 13.9907C212.444 12.8207 213.304 11.9877 214.479 11.4914C217.087 10.6379 219.049 11.4175 220.364 13.8303L229.031 34.3611C230.449 37.7199 231.325 41.0848 231.66 44.4557C231.937 47.4552 231.491 50.2653 230.321 52.886C229.212 55.5309 227.223 57.5576 224.355 58.9662L202.565 68.1648C201.413 68.6013 200.27 68.5891 199.136 68.1282C198.061 67.6914 197.263 66.9152 196.743 65.7993C196.247 64.6237 196.199 63.4565 196.6 62.2978C197.044 61.1213 197.844 60.264 199.002 59.7257L218.651 51.4311C220.211 50.6736 221.277 49.5065 221.848 47.9299C222.419 46.3532 222.532 44.747 222.188 43.1115C222.177 42.9678 222.145 42.833 222.092 42.7071L203.513 50.5498C200.503 51.6225 197.652 51.6638 194.958 50.6737C192.289 49.6239 189.976 47.9537 188.02 45.6631C186.106 43.3548 184.498 40.719 183.198 37.7558L180.194 30.6393C179.757 29.4879 179.778 28.366 180.257 27.2736C180.718 26.1391 181.507 25.3116 182.622 24.7911Z" fill="#B6EADA"/>
</g>
<defs>
<filter id="filter0_d_66_11" x="0.364868" y="0.290039" width="240.775" height="150.048" filterUnits="userSpaceOnUse" color-interpolation-filters="sRGB">
<feFlood flood-opacity="0" result="BackgroundImageFix"/>
<feColorMatrix in="SourceAlpha" type="matrix" values="0 0 0 0 0 0 0 0 0 0 0 0 0 0 0 0 0 0 127 0" result="hardAlpha"/>
<feOffset dy="4"/>
<feGaussianBlur stdDeviation="2"/>
<feComposite in2="hardAlpha" operator="out"/>
<feColorMatrix type="matrix" values="0 0 0 0 0 0 0 0 0 0 0 0 0 0 0 0 0 0 0.25 0"/>
<feBlend mode="normal" in2="BackgroundImageFix" result="effect1_dropShadow_66_11"/>
<feBlend mode="normal" in="SourceGraphic" in2="effect1_dropShadow_66_11" result="shape"/>
</filter>
</defs>
</svg>
