<svg width="263" height="82" viewBox="0 0 263 82" fill="none" xmlns="http://www.w3.org/2000/svg">
<path d="M11.5547 7.63672C10.3177 7.70182 9.27604 8.17383 8.42969 9.05273C7.61589 9.93164 7.02995 10.9408 6.67188 12.0801C6.3138 13.1868 6.13477 14.3262 6.13477 15.498C6.13477 16.6699 6.29753 17.8255 6.62305 18.9648C6.98112 20.1042 7.58333 21.1133 8.42969 21.9922C9.27604 22.8385 10.3177 23.2943 11.5547 23.3594H27.668C29.7188 23.5547 30.8418 24.6777 31.0371 26.7285C31.0046 27.64 30.6628 28.4049 30.0117 29.0234C29.3607 29.6094 28.5794 29.9023 27.668 29.9023H12.0918H9.8457C7.56706 29.7721 5.69531 28.9095 4.23047 27.3145C2.76562 25.6868 1.70768 23.8477 1.05664 21.7969C0.438151 19.7461 0.128906 17.6465 0.128906 15.498C0.128906 13.903 0.307943 12.3242 0.666016 10.7617C1.02409 9.19922 1.57747 7.7181 2.32617 6.31836C3.10742 4.88607 4.13281 3.66536 5.40234 2.65625C6.70443 1.64714 8.18555 1.1263 9.8457 1.09375H10.7734H27.668C29.7188 1.28906 30.8418 2.41211 31.0371 4.46289C31.0371 5.37435 30.6953 6.13932 30.0117 6.75781C29.3607 7.34375 28.5794 7.63672 27.668 7.63672H11.5547ZM45.6367 29.9023C42.7721 29.8047 40.6074 29.1374 39.1426 27.9004C37.6777 26.6309 36.6198 25.2148 35.9688 23.6523C35.3177 22.0573 34.9922 20.446 34.9922 18.8184C34.9922 17.1257 35.3014 15.498 35.9199 13.9355C36.571 12.3405 37.6289 10.9245 39.0938 9.6875C40.5911 8.41797 42.4792 7.76693 44.7578 7.73438H60.5781C62.8568 7.76693 64.7285 8.41797 66.1934 9.6875C67.6908 10.9245 68.7487 12.3405 69.3672 13.9355C70.0182 15.498 70.3438 17.1257 70.3438 18.8184C70.3438 20.446 70.0182 22.0573 69.3672 23.6523C68.7161 25.2148 67.6582 26.6309 66.1934 27.9004C64.7285 29.1374 62.5638 29.8047 59.6992 29.9023H45.6367ZM44.5625 14.2773C43.944 14.2773 43.4069 14.5378 42.9512 15.0586C42.4954 15.5469 42.1536 16.1328 41.9258 16.8164C41.7305 17.4674 41.6328 18.1185 41.6328 18.7695C41.6328 19.4531 41.7305 20.1367 41.9258 20.8203C42.1536 21.4714 42.4954 22.0573 42.9512 22.5781C43.4069 23.0664 43.944 23.3268 44.5625 23.3594H60.7734C61.3919 23.3268 61.929 23.0664 62.3848 22.5781C62.8405 22.0573 63.166 21.4714 63.3613 20.8203C63.5892 20.1367 63.7031 19.4531 63.7031 18.7695C63.7031 18.1185 63.5892 17.4674 63.3613 16.8164C63.166 16.1328 62.8405 15.5469 62.3848 15.0586C61.929 14.5378 61.3919 14.2773 60.7734 14.2773H44.5625ZM91.5352 7.00195C93.2279 7.00195 94.888 7.19727 96.5156 7.58789C98.1758 7.97852 99.7546 8.56445 101.252 9.3457C102.749 10.0944 104.068 11.1035 105.207 12.373C106.379 13.6426 107.014 15.1562 107.111 16.9141V18.9648V27.3145C106.916 29.2676 105.842 30.3255 103.889 30.4883C102.977 30.4883 102.18 30.1953 101.496 29.6094C100.845 28.9909 100.52 28.2259 100.52 27.3145V25.166V18.4277C100.454 17.4186 100.064 16.5885 99.3477 15.9375C98.6641 15.2539 97.8828 14.7168 97.0039 14.3262C96.1576 13.9355 95.2624 13.6426 94.3184 13.4473C93.4069 13.252 92.4792 13.1543 91.5352 13.1543C90.5911 13.1543 89.6471 13.252 88.7031 13.4473C87.7917 13.6426 86.8965 13.9355 86.0176 14.3262C85.1712 14.7168 84.39 15.2539 83.6738 15.9375C82.9902 16.5885 82.6159 17.4186 82.5508 18.4277V25.166V27.3145C82.388 29.2676 81.3301 30.3255 79.377 30.4883C78.4655 30.4883 77.668 30.1953 76.9844 29.6094C76.3333 28.9909 76.0078 28.2259 76.0078 27.3145V18.9648V16.9141C76.1055 15.1562 76.724 13.6426 77.8633 12.373C79.0026 11.1035 80.321 10.0944 81.8184 9.3457C83.3158 8.56445 84.8783 7.97852 86.5059 7.58789C88.166 7.19727 89.8424 7.00195 91.5352 7.00195ZM123.908 0.3125C124.82 0.3125 125.601 0.621745 126.252 1.24023C126.903 1.82617 127.245 2.57487 127.277 3.48633V7.73438H143.879C144.79 7.73438 145.572 8.04362 146.223 8.66211C146.841 9.31315 147.15 10.0944 147.15 11.0059C147.15 11.9173 146.825 12.6986 146.174 13.3496C145.555 13.9681 144.79 14.2773 143.879 14.2773H127.277V15.2539C127.245 16.5885 127.326 17.8255 127.521 18.9648C127.749 20.0716 128.27 21.0645 129.084 21.9434C129.898 22.8223 130.923 23.2943 132.16 23.3594H144.074C144.986 23.3919 145.734 23.7337 146.32 24.3848C146.939 25.0358 147.248 25.8171 147.248 26.7285C147.215 27.6074 146.89 28.3561 146.271 28.9746C145.686 29.5605 144.953 29.8698 144.074 29.9023H130.5C128.221 29.7721 126.333 29.0072 124.836 27.6074C123.371 26.1751 122.313 24.4336 121.662 22.3828C121.044 20.332 120.718 18.151 120.686 15.8398V14.2773H115.07C114.159 14.2773 113.394 13.9518 112.775 13.3008C112.124 12.6823 111.799 11.9173 111.799 11.0059C111.799 10.0944 112.108 9.32943 112.727 8.71094C113.378 8.0599 114.159 7.73438 115.07 7.73438H120.686V3.48633C120.718 2.60742 121.044 1.875 121.662 1.28906C122.281 0.670573 123.029 0.345052 123.908 0.3125ZM179.23 27.3145V15.5469C179.23 14.7331 178.807 14.3099 177.961 14.2773H160.871C160.253 14.3099 159.715 14.5866 159.26 15.1074C158.804 15.5957 158.462 16.1816 158.234 16.8652C158.039 17.5163 157.941 18.1836 157.941 18.8672C157.941 19.5182 158.039 20.1855 158.234 20.8691C158.462 21.5202 158.804 22.1061 159.26 22.627C159.715 23.1152 160.253 23.3594 160.871 23.3594H173.371C174.283 23.3594 175.048 23.6849 175.666 24.3359C176.317 24.9544 176.643 25.7194 176.643 26.6309C176.643 27.5423 176.317 28.3073 175.666 28.9258C175.048 29.5768 174.283 29.9023 173.371 29.9023H161.066C158.788 29.8698 156.9 29.235 155.402 27.998C153.938 26.7285 152.88 25.3125 152.229 23.75C151.61 22.1549 151.301 20.5111 151.301 18.8184C151.301 17.1908 151.626 15.5957 152.277 14.0332C152.928 12.4382 153.986 11.0221 155.451 9.78516C156.916 8.51562 159.081 7.83203 161.945 7.73438H182.453C183.365 7.73438 184.146 8.04362 184.797 8.66211C185.448 9.24805 185.79 9.99674 185.822 10.9082V27.3145C185.822 28.2259 185.48 28.9909 184.797 29.6094C184.146 30.1953 183.365 30.4883 182.453 30.4883C180.5 30.3255 179.426 29.2676 179.23 27.3145ZM202.033 29.9023C199.169 29.8047 197.004 29.1374 195.539 27.9004C194.074 26.6309 193.016 25.2148 192.365 23.6523C191.714 22.0573 191.389 20.446 191.389 18.8184C191.389 17.1257 191.698 15.498 192.316 13.9355C192.967 12.3405 194.025 10.9245 195.49 9.6875C196.988 8.41797 198.876 7.76693 201.154 7.73438H219.709C220.62 7.73438 221.385 8.0599 222.004 8.71094C222.655 9.32943 222.98 10.0944 222.98 11.0059C222.98 11.9173 222.655 12.6986 222.004 13.3496C221.385 13.9681 220.62 14.2773 219.709 14.2773H200.959C200.34 14.2773 199.803 14.5378 199.348 15.0586C198.892 15.5469 198.55 16.1328 198.322 16.8164C198.127 17.4674 198.029 18.1185 198.029 18.7695C198.029 19.4531 198.127 20.1367 198.322 20.8203C198.55 21.4714 198.892 22.0573 199.348 22.5781C199.803 23.0664 200.34 23.3268 200.959 23.3594H219.709C220.62 23.3594 221.385 23.6849 222.004 24.3359C222.655 24.9544 222.98 25.7194 222.98 26.6309C222.98 27.5423 222.655 28.3073 222.004 28.9258C221.385 29.5768 220.62 29.9023 219.709 29.9023H202.033ZM238.703 0.3125C239.615 0.3125 240.396 0.621745 241.047 1.24023C241.698 1.82617 242.04 2.57487 242.072 3.48633V7.73438H258.674C259.585 7.73438 260.367 8.04362 261.018 8.66211C261.636 9.31315 261.945 10.0944 261.945 11.0059C261.945 11.9173 261.62 12.6986 260.969 13.3496C260.35 13.9681 259.585 14.2773 258.674 14.2773H242.072V15.2539C242.04 16.5885 242.121 17.8255 242.316 18.9648C242.544 20.0716 243.065 21.0645 243.879 21.9434C244.693 22.8223 245.718 23.2943 246.955 23.3594H258.869C259.781 23.3919 260.529 23.7337 261.115 24.3848C261.734 25.0358 262.043 25.8171 262.043 26.7285C262.01 27.6074 261.685 28.3561 261.066 28.9746C260.48 29.5605 259.748 29.8698 258.869 29.9023H245.295C243.016 29.7721 241.128 29.0072 239.631 27.6074C238.166 26.1751 237.108 24.4336 236.457 22.3828C235.839 20.332 235.513 18.151 235.48 15.8398V14.2773H229.865C228.954 14.2773 228.189 13.9518 227.57 13.3008C226.919 12.6823 226.594 11.9173 226.594 11.0059C226.594 10.0944 226.903 9.32943 227.521 8.71094C228.173 8.0599 228.954 7.73438 229.865 7.73438H235.48V3.48633C235.513 2.60742 235.839 1.875 236.457 1.28906C237.076 0.670573 237.824 0.345052 238.703 0.3125ZM111.701 81.0254C110.008 81.0254 108.332 80.8301 106.672 80.4395C105.044 80.0488 103.482 79.4792 101.984 78.7305C100.487 77.9492 99.1686 76.9238 98.0293 75.6543C96.89 74.3848 96.2715 72.8711 96.1738 71.1133V69.0625V53.4863C96.1738 52.5749 96.4993 51.8262 97.1504 51.2402C97.834 50.6217 98.6315 50.3125 99.543 50.3125C101.496 50.4753 102.554 51.5332 102.717 53.4863V69.5996C102.782 70.6087 103.156 71.4551 103.84 72.1387C104.556 72.7897 105.337 73.3105 106.184 73.7012C107.062 74.0918 107.958 74.3848 108.869 74.5801C109.813 74.7754 110.757 74.873 111.701 74.873C112.645 74.873 113.573 74.7754 114.484 74.5801C115.428 74.3848 116.324 74.0918 117.17 73.7012C118.049 73.3105 118.83 72.7897 119.514 72.1387C120.23 71.4551 120.62 70.6087 120.686 69.5996V53.4863C120.686 52.5749 121.011 51.8262 121.662 51.2402C122.346 50.6217 123.143 50.3125 124.055 50.3125C126.008 50.4753 127.082 51.5332 127.277 53.4863V69.0625V71.1133C127.18 72.8711 126.545 74.3848 125.373 75.6543C124.234 76.9238 122.915 77.9492 121.418 78.7305C119.921 79.4792 118.342 80.0488 116.682 80.4395C115.054 80.8301 113.394 81.0254 111.701 81.0254ZM164.777 60.5664C164.777 61.3802 164.452 62.0638 163.801 62.6172C163.182 63.138 162.417 63.3984 161.506 63.3984H140.852C140.428 63.3984 140.087 63.4798 139.826 63.6426C139.566 63.8053 139.37 63.9844 139.24 64.1797C139.11 64.3424 139.045 64.4889 139.045 64.6191C139.045 64.7819 139.11 64.9609 139.24 65.1562C139.37 65.319 139.566 65.4818 139.826 65.6445C140.087 65.7747 140.428 65.8561 140.852 65.8887H156.818C158.869 65.9212 160.562 66.3281 161.896 67.1094C163.231 67.8581 164.175 68.7533 164.729 69.7949C165.314 70.804 165.607 71.8294 165.607 72.8711C165.607 73.8802 165.314 74.9056 164.729 75.9473C164.143 76.9564 163.182 77.8516 161.848 78.6328C160.546 79.3815 158.869 79.7559 156.818 79.7559C156.46 79.7884 156.2 79.8047 156.037 79.8047H137.092C136.18 79.8047 135.399 79.5443 134.748 79.0234C134.13 78.4701 133.82 77.8027 133.82 77.0215C133.82 76.2077 134.146 75.5241 134.797 74.9707C135.415 74.4499 136.18 74.1895 137.092 74.1895H157.209C157.697 74.222 158.088 74.1569 158.381 73.9941C158.706 73.8314 158.951 73.6523 159.113 73.457C159.276 73.2617 159.357 73.0664 159.357 72.8711C159.357 72.7734 159.276 72.6107 159.113 72.3828C158.951 72.1224 158.706 71.9271 158.381 71.7969C158.088 71.6341 157.697 71.5365 157.209 71.5039H141.193C139.305 71.4714 137.743 71.0807 136.506 70.332C135.269 69.5508 134.39 68.6556 133.869 67.6465C133.348 66.6374 133.088 65.6283 133.088 64.6191C133.088 63.61 133.348 62.6172 133.869 61.6406C134.423 60.6315 135.301 59.7689 136.506 59.0527C137.743 58.304 139.305 57.8971 141.193 57.832C141.519 57.7995 141.763 57.7832 141.926 57.7832H161.506C162.417 57.7832 163.182 58.0599 163.801 58.6133C164.452 59.1341 164.777 59.7852 164.777 60.5664Z" fill="#041C2E"/>
</svg>
