<svg width="454" height="195" viewBox="0 0 454 195" fill="none" xmlns="http://www.w3.org/2000/svg">
<path d="M117.805 0.75C119.914 0.828125 121.711 1.60938 123.195 3.09375C124.68 4.5 125.461 6.25781 125.539 8.36719V27.9375H163.625V8.36719C163.703 6.17969 164.523 4.38281 166.086 2.97656C167.648 1.49219 169.523 0.75 171.711 0.75C173.82 0.828125 175.617 1.60938 177.102 3.09375C178.586 4.5 179.367 6.25781 179.445 8.36719V65.7891C178.977 70.4766 176.398 73.0156 171.711 73.4062C169.523 73.4062 167.609 72.7031 165.969 71.2969C164.406 69.8125 163.625 67.9766 163.625 65.7891V43.6406H125.539V65.7891C125.07 70.4766 122.492 73.0156 117.805 73.4062C115.617 73.4062 113.703 72.7031 112.062 71.2969C110.5 69.8125 109.719 67.9766 109.719 65.7891V8.36719C109.797 6.17969 110.617 4.38281 112.18 2.97656C113.742 1.49219 115.617 0.75 117.805 0.75ZM259.484 65.5547V37.3125C259.484 35.3594 258.469 34.3438 256.438 34.2656H215.422C213.938 34.3438 212.648 35.0078 211.555 36.2578C210.461 37.4297 209.641 38.8359 209.094 40.4766C208.625 42.0391 208.391 43.6406 208.391 45.2812C208.391 46.8438 208.625 48.4453 209.094 50.0859C209.641 51.6484 210.461 53.0547 211.555 54.3047C212.648 55.4766 213.938 56.0625 215.422 56.0625H245.422C247.609 56.0625 249.445 56.8438 250.93 58.4062C252.492 59.8906 253.273 61.7266 253.273 63.9141C253.273 66.1016 252.492 67.9375 250.93 69.4219C249.445 70.9844 247.609 71.7656 245.422 71.7656H215.891C210.422 71.6875 205.891 70.1641 202.297 67.1953C198.781 64.1484 196.242 60.75 194.68 57C193.195 53.1719 192.453 49.2266 192.453 45.1641C192.453 41.2578 193.234 37.4297 194.797 33.6797C196.359 29.8516 198.898 26.4531 202.414 23.4844C205.93 20.4375 211.125 18.7969 218 18.5625H267.219C269.406 18.5625 271.281 19.3047 272.844 20.7891C274.406 22.1953 275.227 23.9922 275.305 26.1797V65.5547C275.305 67.7422 274.484 69.5781 272.844 71.0625C271.281 72.4688 269.406 73.1719 267.219 73.1719C262.531 72.7812 259.953 70.2422 259.484 65.5547ZM314.211 71.7656C307.336 71.5312 302.141 69.9297 298.625 66.9609C295.109 63.9141 292.57 60.5156 291.008 56.7656C289.445 52.9375 288.664 49.0703 288.664 45.1641C288.664 41.1016 289.406 37.1953 290.891 33.4453C292.453 29.6172 294.992 26.2188 298.508 23.25C302.102 20.2031 306.633 18.6406 312.102 18.5625H356.633C358.82 18.5625 360.656 19.3438 362.141 20.9062C363.703 22.3906 364.484 24.2266 364.484 26.4141C364.484 28.6016 363.703 30.4766 362.141 32.0391C360.656 33.5234 358.82 34.2656 356.633 34.2656H311.633C310.148 34.2656 308.859 34.8906 307.766 36.1406C306.672 37.3125 305.852 38.7188 305.305 40.3594C304.836 41.9219 304.602 43.4844 304.602 45.0469C304.602 46.6875 304.836 48.3281 305.305 49.9688C305.852 51.5312 306.672 52.9375 307.766 54.1875C308.859 55.3594 310.148 55.9844 311.633 56.0625H356.633C358.82 56.0625 360.656 56.8438 362.141 58.4062C363.703 59.8906 364.484 61.7266 364.484 63.9141C364.484 66.1016 363.703 67.9375 362.141 69.4219C360.656 70.9844 358.82 71.7656 356.633 71.7656H314.211ZM384.875 0.75C386.984 0.828125 388.781 1.60938 390.266 3.09375C391.75 4.5 392.531 6.25781 392.609 8.36719V65.7891C392.141 70.4766 389.562 73.0156 384.875 73.4062C382.688 73.4062 380.773 72.7031 379.133 71.2969C377.57 69.8125 376.789 67.9766 376.789 65.7891V8.36719C376.867 6.17969 377.688 4.38281 379.25 2.97656C380.812 1.49219 382.688 0.75 384.875 0.75ZM399.758 33.4453C402.023 29.7734 406.359 27.0781 412.766 25.3594L442.883 17.2734C444.992 16.6484 446.984 16.8438 448.859 17.8594C450.812 18.7969 452.102 20.3203 452.727 22.4297C453.43 24.4609 453.273 26.4531 452.258 28.4062C451.32 30.2812 449.797 31.5703 447.688 32.2734L415.578 40.5938C413.312 41.4531 412.219 42.9375 412.297 45.0469C412.219 47.1562 413.312 48.6406 415.578 49.5L447.688 57.8203C449.797 58.5234 451.32 59.8516 452.258 61.8047C453.273 63.6797 453.43 65.6328 452.727 67.6641C452.102 69.7734 450.812 71.2969 448.859 72.2344C446.984 73.25 444.992 73.4453 442.883 72.8203L412.766 64.7344C406.281 62.9375 401.906 60.2031 399.641 56.5312C397.453 52.8594 396.359 49.0312 396.359 45.0469C396.359 41.0625 397.492 37.1953 399.758 33.4453ZM25.6953 194.461C23.0391 194.461 20.3828 193.992 17.7266 193.055C15.1484 192.117 12.6484 190.75 10.2266 188.953C7.80469 187.078 5.69531 184.617 3.89844 181.57C2.10156 178.523 1.125 174.891 0.96875 170.672V128.367C0.96875 126.18 1.75 124.383 3.3125 122.977C4.95312 121.492 6.86719 120.75 9.05469 120.75C13.7422 121.141 16.2812 123.68 16.6719 128.367V169.734C16.75 171.609 17.1406 173.211 17.8438 174.539C18.5469 175.789 19.3281 176.805 20.1875 177.586C21.0469 178.289 21.9062 178.836 22.7656 179.227C23.7031 179.539 24.6406 179.695 25.5781 179.695C26.5156 179.695 27.4531 179.539 28.3906 179.227C29.3281 178.836 30.2266 178.289 31.0859 177.586C31.9453 176.805 32.7266 175.789 33.4297 174.539C34.1328 173.211 34.4844 171.609 34.4844 169.734V128.367C34.4844 126.18 35.2656 124.383 36.8281 122.977C38.4688 121.492 40.3828 120.75 42.5703 120.75C47.2578 121.141 49.8359 123.68 50.3047 128.367V169.734C50.3828 171.609 50.7734 173.172 51.4766 174.422C52.1797 175.75 52.9609 176.805 53.8203 177.586C54.6797 178.289 55.5391 178.836 56.3984 179.227C57.3359 179.539 58.2734 179.695 59.2109 179.695C60.1484 179.695 61.0859 179.539 62.0234 179.227C62.9609 178.836 63.8594 178.289 64.7188 177.586C65.5781 176.805 66.3594 175.789 67.0625 174.539C67.7656 173.211 68.1172 171.609 68.1172 169.734V128.367C68.1172 126.18 68.8984 124.383 70.4609 122.977C72.1016 121.492 74.0156 120.75 76.2031 120.75C80.8906 121.141 83.4688 123.68 83.9375 128.367V170.672C83.9375 174.891 83 178.523 81.125 181.57C79.3281 184.617 77.2188 187.078 74.7969 188.953C72.4531 190.75 69.9531 192.117 67.2969 193.055C64.7188 193.992 62.0625 194.461 59.3281 194.461C56.6719 194.461 54.0156 193.992 51.3594 193.055C48.7812 192.117 46.2812 190.711 43.8594 188.836C43.3906 188.523 42.9609 188.172 42.5703 187.781C42.1016 188.172 41.6719 188.523 41.2812 188.836C38.8594 190.711 36.3203 192.117 33.6641 193.055C31.0859 193.992 28.4297 194.461 25.6953 194.461ZM164.797 185.555V157.312C164.797 155.359 163.781 154.344 161.75 154.266H120.734C119.25 154.344 117.961 155.008 116.867 156.258C115.773 157.43 114.953 158.836 114.406 160.477C113.938 162.039 113.703 163.641 113.703 165.281C113.703 166.844 113.938 168.445 114.406 170.086C114.953 171.648 115.773 173.055 116.867 174.305C117.961 175.477 119.25 176.062 120.734 176.062H150.734C152.922 176.062 154.758 176.844 156.242 178.406C157.805 179.891 158.586 181.727 158.586 183.914C158.586 186.102 157.805 187.938 156.242 189.422C154.758 190.984 152.922 191.766 150.734 191.766H121.203C115.734 191.688 111.203 190.164 107.609 187.195C104.094 184.148 101.555 180.75 99.9922 177C98.5078 173.172 97.7656 169.227 97.7656 165.164C97.7656 161.258 98.5469 157.43 100.109 153.68C101.672 149.852 104.211 146.453 107.727 143.484C111.242 140.438 116.438 138.797 123.312 138.562H172.531C174.719 138.562 176.594 139.305 178.156 140.789C179.719 142.195 180.539 143.992 180.617 146.18V185.555C180.617 187.742 179.797 189.578 178.156 191.062C176.594 192.469 174.719 193.172 172.531 193.172C167.844 192.781 165.266 190.242 164.797 185.555ZM270.148 145.359C270.148 147.312 269.367 148.953 267.805 150.281C266.32 151.531 264.484 152.156 262.297 152.156H212.727C211.711 152.156 210.891 152.352 210.266 152.742C209.641 153.133 209.172 153.562 208.859 154.031C208.547 154.422 208.391 154.773 208.391 155.086C208.391 155.477 208.547 155.906 208.859 156.375C209.172 156.766 209.641 157.156 210.266 157.547C210.891 157.859 211.711 158.055 212.727 158.133H251.047C255.969 158.211 260.031 159.188 263.234 161.062C266.438 162.859 268.703 165.008 270.031 167.508C271.438 169.93 272.141 172.391 272.141 174.891C272.141 177.312 271.438 179.773 270.031 182.273C268.625 184.695 266.32 186.844 263.117 188.719C259.992 190.516 255.969 191.414 251.047 191.414C250.188 191.492 249.562 191.531 249.172 191.531H203.703C201.516 191.531 199.641 190.906 198.078 189.656C196.594 188.328 195.852 186.727 195.852 184.852C195.852 182.898 196.633 181.258 198.195 179.93C199.68 178.68 201.516 178.055 203.703 178.055H251.984C253.156 178.133 254.094 177.977 254.797 177.586C255.578 177.195 256.164 176.766 256.555 176.297C256.945 175.828 257.141 175.359 257.141 174.891C257.141 174.656 256.945 174.266 256.555 173.719C256.164 173.094 255.578 172.625 254.797 172.312C254.094 171.922 253.156 171.688 251.984 171.609H213.547C209.016 171.531 205.266 170.594 202.297 168.797C199.328 166.922 197.219 164.773 195.969 162.352C194.719 159.93 194.094 157.508 194.094 155.086C194.094 152.664 194.719 150.281 195.969 147.938C197.297 145.516 199.406 143.445 202.297 141.727C205.266 139.93 209.016 138.953 213.547 138.797C214.328 138.719 214.914 138.68 215.305 138.68H262.297C264.484 138.68 266.32 139.344 267.805 140.672C269.367 141.922 270.148 143.484 270.148 145.359ZM293.234 120.75C295.344 120.828 297.141 121.609 298.625 123.094C300.109 124.5 300.891 126.258 300.969 128.367V138.562H337.297C342.766 138.641 347.258 140.203 350.773 143.25C354.367 146.219 356.906 149.578 358.391 153.328C359.953 157.156 360.734 161.102 360.734 165.164H360.852V185.555C360.852 187.742 360.031 189.578 358.391 191.062C356.828 192.469 354.953 193.172 352.766 193.172C348.078 192.781 345.5 190.242 345.031 185.555V165.047C345.031 163.562 344.719 162 344.094 160.359C343.547 158.719 342.727 157.312 341.633 156.141C340.539 154.891 339.25 154.266 337.766 154.266H300.969V185.789C300.5 190.477 297.922 193.016 293.234 193.406C291.047 193.406 289.133 192.703 287.492 191.297C285.93 189.812 285.148 187.977 285.148 185.789V128.367C285.227 126.18 286.047 124.383 287.609 122.977C289.172 121.492 291.047 120.75 293.234 120.75ZM413 193.758C408.938 193.758 404.914 193.289 400.93 192.352C397.023 191.414 393.273 190.047 389.68 188.25C386.086 186.375 382.922 183.914 380.188 180.867C377.453 177.82 375.969 174.188 375.734 169.969V165.047V145.008C375.734 142.82 376.516 141.023 378.078 139.617C379.719 138.133 381.633 137.391 383.82 137.391C388.508 137.781 391.047 140.32 391.438 145.008V150.164V166.336C391.594 168.758 392.492 170.789 394.133 172.43C395.852 173.992 397.727 175.242 399.758 176.18C401.867 177.117 404.016 177.82 406.203 178.289C408.469 178.758 410.734 178.992 413 178.992C415.266 178.992 417.492 178.758 419.68 178.289C421.945 177.82 424.094 177.117 426.125 176.18C428.234 175.242 430.109 173.992 431.75 172.43C433.469 170.789 434.406 168.758 434.562 166.336V150.164V145.008C434.562 142.82 435.344 141.023 436.906 139.617C438.547 138.133 440.461 137.391 442.648 137.391C447.336 137.781 449.914 140.32 450.383 145.008V165.047V169.969C450.148 174.188 448.625 177.82 445.812 180.867C443.078 183.914 439.914 186.375 436.32 188.25C432.727 190.047 428.938 191.414 424.953 192.352C421.047 193.289 417.062 193.758 413 193.758Z" fill="#03001C"/>
</svg>
